<mxfile host="app.diagrams.net" modified="2022-09-28T20:14:49.319Z" agent="5.0 (Windows NT 10.0; Win64; x64) AppleWebKit/537.36 (KHTML, like Gecko) Chrome/105.0.0.0 Safari/537.36" etag="Z_3vGC0MIDbWnsYJK09Q" version="20.3.7" type="github">
  <diagram id="C5RBs43oDa-KdzZeNtuy" name="Page-1">
    <mxGraphModel dx="1632" dy="600" grid="1" gridSize="10" guides="1" tooltips="1" connect="1" arrows="1" fold="1" page="1" pageScale="1" pageWidth="827" pageHeight="1169" math="0" shadow="0">
      <root>
        <mxCell id="WIyWlLk6GJQsqaUBKTNV-0" />
        <mxCell id="WIyWlLk6GJQsqaUBKTNV-1" parent="WIyWlLk6GJQsqaUBKTNV-0" />
        <mxCell id="WIyWlLk6GJQsqaUBKTNV-3" value="Início" style="rounded=1;whiteSpace=wrap;html=1;fontSize=12;glass=0;strokeWidth=1;shadow=0;" parent="WIyWlLk6GJQsqaUBKTNV-1" vertex="1">
          <mxGeometry x="185" y="80" width="80" height="30" as="geometry" />
        </mxCell>
        <mxCell id="Zu7YTi2EJA5n7ZkUkfS5-6" style="edgeStyle=none;rounded=0;orthogonalLoop=1;jettySize=auto;html=1;exitX=0.5;exitY=1;exitDx=0;exitDy=0;" edge="1" parent="WIyWlLk6GJQsqaUBKTNV-1" source="Zu7YTi2EJA5n7ZkUkfS5-1">
          <mxGeometry relative="1" as="geometry">
            <mxPoint x="225" y="250" as="targetPoint" />
          </mxGeometry>
        </mxCell>
        <mxCell id="Zu7YTi2EJA5n7ZkUkfS5-1" value="Inteiro, valor1, valor2, resto" style="rounded=0;whiteSpace=wrap;html=1;fillColor=default;" vertex="1" parent="WIyWlLk6GJQsqaUBKTNV-1">
          <mxGeometry x="150" y="170" width="150" height="30" as="geometry" />
        </mxCell>
        <mxCell id="Zu7YTi2EJA5n7ZkUkfS5-7" value="Olá! Vamos verificar se um valor é divisor de outro. Digite dois valores:" style="shape=document;whiteSpace=wrap;html=1;boundedLbl=1;fillColor=default;" vertex="1" parent="WIyWlLk6GJQsqaUBKTNV-1">
          <mxGeometry x="165" y="250" width="120" height="80" as="geometry" />
        </mxCell>
        <mxCell id="Zu7YTi2EJA5n7ZkUkfS5-8" value="Leia (valor1, valor2)" style="rounded=0;whiteSpace=wrap;html=1;fillColor=default;" vertex="1" parent="WIyWlLk6GJQsqaUBKTNV-1">
          <mxGeometry x="160" y="370" width="130" height="40" as="geometry" />
        </mxCell>
        <mxCell id="Zu7YTi2EJA5n7ZkUkfS5-18" style="edgeStyle=none;rounded=0;orthogonalLoop=1;jettySize=auto;html=1;exitX=0.5;exitY=1;exitDx=0;exitDy=0;entryX=0.5;entryY=0;entryDx=0;entryDy=0;" edge="1" parent="WIyWlLk6GJQsqaUBKTNV-1" source="Zu7YTi2EJA5n7ZkUkfS5-9" target="Zu7YTi2EJA5n7ZkUkfS5-10">
          <mxGeometry relative="1" as="geometry" />
        </mxCell>
        <mxCell id="Zu7YTi2EJA5n7ZkUkfS5-19" style="edgeStyle=none;rounded=0;orthogonalLoop=1;jettySize=auto;html=1;exitX=1;exitY=0.5;exitDx=0;exitDy=0;entryX=0;entryY=0.5;entryDx=0;entryDy=0;" edge="1" parent="WIyWlLk6GJQsqaUBKTNV-1" source="Zu7YTi2EJA5n7ZkUkfS5-9" target="Zu7YTi2EJA5n7ZkUkfS5-12">
          <mxGeometry relative="1" as="geometry" />
        </mxCell>
        <mxCell id="Zu7YTi2EJA5n7ZkUkfS5-9" value="valor1 &amp;gt; valor2" style="rhombus;whiteSpace=wrap;html=1;fillColor=default;" vertex="1" parent="WIyWlLk6GJQsqaUBKTNV-1">
          <mxGeometry x="175" y="460" width="100" height="80" as="geometry" />
        </mxCell>
        <mxCell id="Zu7YTi2EJA5n7ZkUkfS5-10" value="valor2 &amp;gt; valor1" style="rhombus;whiteSpace=wrap;html=1;fillColor=default;" vertex="1" parent="WIyWlLk6GJQsqaUBKTNV-1">
          <mxGeometry x="175" y="610" width="100" height="80" as="geometry" />
        </mxCell>
        <mxCell id="Zu7YTi2EJA5n7ZkUkfS5-23" style="edgeStyle=orthogonalEdgeStyle;rounded=0;orthogonalLoop=1;jettySize=auto;html=1;exitX=1;exitY=0.5;exitDx=0;exitDy=0;entryX=0;entryY=0.5;entryDx=0;entryDy=0;" edge="1" parent="WIyWlLk6GJQsqaUBKTNV-1" source="Zu7YTi2EJA5n7ZkUkfS5-11" target="Zu7YTi2EJA5n7ZkUkfS5-13">
          <mxGeometry relative="1" as="geometry">
            <mxPoint x="510" y="580" as="targetPoint" />
            <Array as="points">
              <mxPoint x="510" y="650" />
              <mxPoint x="510" y="585" />
            </Array>
          </mxGeometry>
        </mxCell>
        <mxCell id="Zu7YTi2EJA5n7ZkUkfS5-11" value="resto &amp;lt;-- valor2 % valor1" style="rounded=0;whiteSpace=wrap;html=1;fillColor=default;" vertex="1" parent="WIyWlLk6GJQsqaUBKTNV-1">
          <mxGeometry x="330" y="625" width="140" height="50" as="geometry" />
        </mxCell>
        <mxCell id="Zu7YTi2EJA5n7ZkUkfS5-42" style="edgeStyle=orthogonalEdgeStyle;rounded=0;orthogonalLoop=1;jettySize=auto;html=1;exitX=1;exitY=0.5;exitDx=0;exitDy=0;entryX=0;entryY=0.5;entryDx=0;entryDy=0;" edge="1" parent="WIyWlLk6GJQsqaUBKTNV-1" source="Zu7YTi2EJA5n7ZkUkfS5-12" target="Zu7YTi2EJA5n7ZkUkfS5-13">
          <mxGeometry relative="1" as="geometry" />
        </mxCell>
        <mxCell id="Zu7YTi2EJA5n7ZkUkfS5-12" value="resto &amp;lt;--valor1 % valor2" style="rounded=0;whiteSpace=wrap;html=1;fillColor=default;" vertex="1" parent="WIyWlLk6GJQsqaUBKTNV-1">
          <mxGeometry x="330" y="475" width="140" height="50" as="geometry" />
        </mxCell>
        <mxCell id="Zu7YTi2EJA5n7ZkUkfS5-28" style="edgeStyle=orthogonalEdgeStyle;rounded=0;orthogonalLoop=1;jettySize=auto;html=1;exitX=0.5;exitY=1;exitDx=0;exitDy=0;" edge="1" parent="WIyWlLk6GJQsqaUBKTNV-1" source="Zu7YTi2EJA5n7ZkUkfS5-13">
          <mxGeometry relative="1" as="geometry">
            <mxPoint x="585" y="670" as="targetPoint" />
          </mxGeometry>
        </mxCell>
        <mxCell id="Zu7YTi2EJA5n7ZkUkfS5-32" style="edgeStyle=orthogonalEdgeStyle;rounded=0;orthogonalLoop=1;jettySize=auto;html=1;exitX=1;exitY=0.5;exitDx=0;exitDy=0;" edge="1" parent="WIyWlLk6GJQsqaUBKTNV-1" source="Zu7YTi2EJA5n7ZkUkfS5-13">
          <mxGeometry relative="1" as="geometry">
            <mxPoint x="760" y="750" as="targetPoint" />
          </mxGeometry>
        </mxCell>
        <mxCell id="Zu7YTi2EJA5n7ZkUkfS5-13" value="resto == 0" style="rhombus;whiteSpace=wrap;html=1;fillColor=default;" vertex="1" parent="WIyWlLk6GJQsqaUBKTNV-1">
          <mxGeometry x="550" y="555" width="70" height="60" as="geometry" />
        </mxCell>
        <mxCell id="Zu7YTi2EJA5n7ZkUkfS5-33" style="edgeStyle=orthogonalEdgeStyle;rounded=0;orthogonalLoop=1;jettySize=auto;html=1;entryX=0;entryY=0.333;entryDx=0;entryDy=0;entryPerimeter=0;" edge="1" parent="WIyWlLk6GJQsqaUBKTNV-1" source="Zu7YTi2EJA5n7ZkUkfS5-14" target="Zu7YTi2EJA5n7ZkUkfS5-38">
          <mxGeometry relative="1" as="geometry">
            <mxPoint x="720" y="760" as="targetPoint" />
            <Array as="points">
              <mxPoint x="580" y="760" />
            </Array>
          </mxGeometry>
        </mxCell>
        <mxCell id="Zu7YTi2EJA5n7ZkUkfS5-14" value="É divisor!!!!" style="shape=document;whiteSpace=wrap;html=1;boundedLbl=1;fillColor=default;" vertex="1" parent="WIyWlLk6GJQsqaUBKTNV-1">
          <mxGeometry x="540" y="670" width="80" height="60" as="geometry" />
        </mxCell>
        <mxCell id="Zu7YTi2EJA5n7ZkUkfS5-15" style="edgeStyle=none;rounded=0;orthogonalLoop=1;jettySize=auto;html=1;exitX=0.5;exitY=1;exitDx=0;exitDy=0;" edge="1" parent="WIyWlLk6GJQsqaUBKTNV-1" source="WIyWlLk6GJQsqaUBKTNV-3">
          <mxGeometry relative="1" as="geometry">
            <mxPoint x="224.5" y="170" as="targetPoint" />
            <mxPoint x="224.5" y="120" as="sourcePoint" />
          </mxGeometry>
        </mxCell>
        <mxCell id="Zu7YTi2EJA5n7ZkUkfS5-16" style="edgeStyle=none;rounded=0;orthogonalLoop=1;jettySize=auto;html=1;exitX=0.5;exitY=1;exitDx=0;exitDy=0;" edge="1" parent="WIyWlLk6GJQsqaUBKTNV-1">
          <mxGeometry relative="1" as="geometry">
            <mxPoint x="224.5" y="370" as="targetPoint" />
            <mxPoint x="224.5" y="320" as="sourcePoint" />
          </mxGeometry>
        </mxCell>
        <mxCell id="Zu7YTi2EJA5n7ZkUkfS5-17" style="edgeStyle=none;rounded=0;orthogonalLoop=1;jettySize=auto;html=1;exitX=0.5;exitY=1;exitDx=0;exitDy=0;" edge="1" parent="WIyWlLk6GJQsqaUBKTNV-1">
          <mxGeometry relative="1" as="geometry">
            <mxPoint x="224.5" y="460" as="targetPoint" />
            <mxPoint x="224.5" y="410" as="sourcePoint" />
          </mxGeometry>
        </mxCell>
        <mxCell id="Zu7YTi2EJA5n7ZkUkfS5-20" style="edgeStyle=none;rounded=0;orthogonalLoop=1;jettySize=auto;html=1;exitX=1;exitY=0.5;exitDx=0;exitDy=0;entryX=0;entryY=0.5;entryDx=0;entryDy=0;" edge="1" parent="WIyWlLk6GJQsqaUBKTNV-1">
          <mxGeometry relative="1" as="geometry">
            <mxPoint x="275" y="649.5" as="sourcePoint" />
            <mxPoint x="330" y="649.5" as="targetPoint" />
          </mxGeometry>
        </mxCell>
        <mxCell id="Zu7YTi2EJA5n7ZkUkfS5-29" value="&lt;b&gt;Sim&lt;/b&gt;" style="text;html=1;strokeColor=none;fillColor=none;align=center;verticalAlign=middle;whiteSpace=wrap;rounded=0;" vertex="1" parent="WIyWlLk6GJQsqaUBKTNV-1">
          <mxGeometry x="265" y="460" width="60" height="30" as="geometry" />
        </mxCell>
        <mxCell id="Zu7YTi2EJA5n7ZkUkfS5-30" value="&lt;b&gt;Sim&lt;/b&gt;" style="text;html=1;strokeColor=none;fillColor=none;align=center;verticalAlign=middle;whiteSpace=wrap;rounded=0;" vertex="1" parent="WIyWlLk6GJQsqaUBKTNV-1">
          <mxGeometry x="265" y="610" width="60" height="30" as="geometry" />
        </mxCell>
        <mxCell id="Zu7YTi2EJA5n7ZkUkfS5-31" value="&lt;b&gt;Sim&lt;/b&gt;" style="text;html=1;strokeColor=none;fillColor=none;align=center;verticalAlign=middle;whiteSpace=wrap;rounded=0;" vertex="1" parent="WIyWlLk6GJQsqaUBKTNV-1">
          <mxGeometry x="520" y="635" width="60" height="30" as="geometry" />
        </mxCell>
        <mxCell id="Zu7YTi2EJA5n7ZkUkfS5-34" value="&lt;b&gt;Não&lt;/b&gt;" style="text;html=1;strokeColor=none;fillColor=none;align=center;verticalAlign=middle;whiteSpace=wrap;rounded=0;" vertex="1" parent="WIyWlLk6GJQsqaUBKTNV-1">
          <mxGeometry x="125" y="570" width="60" height="30" as="geometry" />
        </mxCell>
        <mxCell id="Zu7YTi2EJA5n7ZkUkfS5-35" value="&lt;b&gt;Não&lt;/b&gt;" style="text;html=1;strokeColor=none;fillColor=none;align=center;verticalAlign=middle;whiteSpace=wrap;rounded=0;" vertex="1" parent="WIyWlLk6GJQsqaUBKTNV-1">
          <mxGeometry x="630" y="550" width="60" height="30" as="geometry" />
        </mxCell>
        <mxCell id="Zu7YTi2EJA5n7ZkUkfS5-38" value="&lt;b&gt;FIM&lt;/b&gt;" style="rounded=1;whiteSpace=wrap;html=1;fillColor=default;" vertex="1" parent="WIyWlLk6GJQsqaUBKTNV-1">
          <mxGeometry x="730" y="750" width="50" height="30" as="geometry" />
        </mxCell>
      </root>
    </mxGraphModel>
  </diagram>
</mxfile>
